<?xml version="1.0" encoding="UTF-8"?>
<!DOCTYPE svg PUBLIC "-//W3C//DTD SVG 1.1//EN" "http://www.w3.org/Graphics/SVG/1.1/DTD/svg11.dtd">
<svg xmlns="http://www.w3.org/2000/svg" version="1.1" width="850px" height="172px" style="shape-rendering:geometricPrecision; text-rendering:geometricPrecision; image-rendering:optimizeQuality; fill-rule:evenodd; clip-rule:evenodd" xmlns:xlink="http://www.w3.org/1999/xlink">
<g><path style="opacity:0.999" fill="#2eb4dc" d="M -0.5,-0.5 C 6.83333,-0.5 14.1667,-0.5 21.5,-0.5C 32.7568,26.7642 43.9235,54.0976 55,81.5C 66.1298,54.2471 76.9631,26.9138 87.5,-0.5C 94.8333,-0.5 102.167,-0.5 109.5,-0.5C 95.4063,36.3602 80.7397,73.0268 65.5,109.5C 58.1667,110.833 50.8333,110.833 43.5,109.5C 29.0025,73.3197 14.3359,37.3197 -0.5,1.5C -0.5,0.833333 -0.5,0.166667 -0.5,-0.5 Z"/></g>
<g><path style="opacity:1" fill="#2bb3dc" d="M 247.5,-0.5 C 254.5,-0.5 261.5,-0.5 268.5,-0.5C 277.65,25.1413 286.817,50.808 296,76.5C 298.699,67.9984 301.532,59.665 304.5,51.5C 305.924,49.4855 306.59,47.1522 306.5,44.5C 306.767,42.0347 307.434,39.7014 308.5,37.5C 311.14,32.915 312.806,27.915 313.5,22.5C 315.61,18.4979 316.943,14.1646 317.5,9.5C 317.5,9.16667 317.5,8.83333 317.5,8.5C 319.472,5.91642 320.472,2.91642 320.5,-0.5C 326.5,-0.5 332.5,-0.5 338.5,-0.5C 338.5,0.166667 338.5,0.833333 338.5,1.5C 338.723,5.16211 339.723,8.49544 341.5,11.5C 342.738,13.2143 343.405,15.2143 343.5,17.5C 343.528,20.9164 344.528,23.9164 346.5,26.5C 347.566,28.7014 348.233,31.0347 348.5,33.5C 348.528,36.9164 349.528,39.9164 351.5,42.5C 354.434,49.9711 356.768,57.6378 358.5,65.5C 358.528,68.9164 359.528,71.9164 361.5,74.5C 362.222,74.9175 362.722,75.5842 363,76.5C 371.739,50.7835 380.572,25.1169 389.5,-0.5C 396.833,-0.5 404.167,-0.5 411.5,-0.5C 398.509,36.1383 385.509,72.805 372.5,109.5C 365.833,110.833 359.167,110.833 352.5,109.5C 344.854,85.5789 337.521,61.5789 330.5,37.5C 330.719,36.325 330.386,35.325 329.5,34.5C 328.893,34.6236 328.56,34.9569 328.5,35.5C 321.434,60.4523 313.767,85.119 305.5,109.5C 298.745,109.793 292.078,109.46 285.5,108.5C 272.44,72.3219 259.774,35.9885 247.5,-0.5 Z"/></g>
<g><path style="opacity:1" fill="#2168a1" d="M 432.5,-0.5 C 439.167,-0.5 445.833,-0.5 452.5,-0.5C 459.714,14.5953 466.381,29.9287 472.5,45.5C 472.087,48.3202 473.087,50.3202 475.5,51.5C 480.048,60.5968 484.048,69.9301 487.5,79.5C 487.639,81.337 488.306,81.6704 489.5,80.5C 490.309,78.9291 490.643,77.2624 490.5,75.5C 490.5,75.1667 490.5,74.8333 490.5,74.5C 492.213,73.3646 492.88,71.698 492.5,69.5C 492.5,69.1667 492.5,68.8333 492.5,68.5C 494.213,67.3646 494.88,65.698 494.5,63.5C 494.5,63.1667 494.5,62.8333 494.5,62.5C 496.655,60.3826 497.655,57.716 497.5,54.5C 499.074,52.8984 499.741,50.8984 499.5,48.5C 499.557,47.391 499.89,46.391 500.5,45.5C 502.585,43.3155 503.585,40.6489 503.5,37.5C 503.767,35.0347 504.434,32.7014 505.5,30.5C 507.213,29.3646 507.88,27.698 507.5,25.5C 507.5,25.1667 507.5,24.8333 507.5,24.5C 508.829,22.9414 510.162,21.2748 511.5,19.5C 511.08,17.674 511.08,15.674 511.5,13.5C 511.5,13.1667 511.5,12.8333 511.5,12.5C 513.655,10.3826 514.655,7.71597 514.5,4.5C 514.5,4.16667 514.5,3.83333 514.5,3.5C 515.674,2.48631 516.34,1.15298 516.5,-0.5C 522.833,-0.5 529.167,-0.5 535.5,-0.5C 534.739,3.78426 533.405,7.78426 531.5,11.5C 529.528,14.0836 528.528,17.0836 528.5,20.5C 521.401,43.1318 513.735,65.4651 505.5,87.5C 504.262,89.2143 503.595,91.2143 503.5,93.5C 502.232,98.9702 500.565,104.304 498.5,109.5C 491.492,109.666 484.492,109.5 477.5,109C 478.151,107.692 477.485,106.859 475.5,106.5C 464.071,82.563 453.404,58.2296 443.5,33.5C 443.719,32.325 443.386,31.325 442.5,30.5C 441.893,30.6236 441.56,30.9569 441.5,31.5C 433.208,57.3775 424.541,83.0442 415.5,108.5C 412.25,109.127 408.917,109.461 405.5,109.5C 402.087,109.483 399.087,108.816 396.5,107.5C 396.5,107.167 396.5,106.833 396.5,106.5C 398.213,105.365 398.88,103.698 398.5,101.5C 398.5,101.167 398.5,100.833 398.5,100.5C 400.655,98.3826 401.655,95.716 401.5,92.5C 403.074,90.8984 403.741,88.8984 403.5,86.5C 403.5,86.1667 403.5,85.8333 403.5,85.5C 405.99,82.3743 407.323,78.7076 407.5,74.5C 409.55,67.4011 411.883,60.4011 414.5,53.5C 415.15,53.1961 415.817,52.8627 416.5,52.5C 417.598,49.2473 418.264,45.9139 418.5,42.5C 418.5,42.1667 418.5,41.8333 418.5,41.5C 420.213,40.3646 420.88,38.698 420.5,36.5C 420.5,36.1667 420.5,35.8333 420.5,35.5C 422.213,34.3646 422.88,32.698 422.5,30.5C 422.5,30.1667 422.5,29.8333 422.5,29.5C 424.213,28.3646 424.88,26.698 424.5,24.5C 424.433,23.0413 424.766,21.7079 425.5,20.5C 427.655,18.3826 428.655,15.716 428.5,12.5C 430.074,10.8984 430.741,8.89837 430.5,6.5C 432.074,4.89837 432.741,2.89837 432.5,0.5C 432.5,0.166667 432.5,-0.166667 432.5,-0.5 Z"/></g>
<g><path style="opacity:0.996" fill="#18659f" d="M 558.5,-0.5 C 584.833,-0.5 611.167,-0.5 637.5,-0.5C 635.871,5.39248 633.871,11.0591 631.5,16.5C 605.145,17.1576 579.145,16.491 553.5,14.5C 554.708,9.32739 556.375,4.32739 558.5,-0.5 Z"/></g>
<g><path style="opacity:0.999" fill="#1e68a0" d="M 652.5,-0.5 C 660.5,-0.5 668.5,-0.5 676.5,-0.5C 676.345,2.71597 677.345,5.38264 679.5,7.5C 679.5,7.83333 679.5,8.16667 679.5,8.5C 680.724,15.1673 682.724,21.5007 685.5,27.5C 686.933,30.2823 688.1,33.2823 689,36.5C 701.369,24.2985 713.535,11.9651 725.5,-0.5C 733.833,-0.5 742.167,-0.5 750.5,-0.5C 733.202,17.2986 715.702,34.9652 698,52.5C 697.536,53.0944 697.369,53.7611 697.5,54.5C 697.12,56.698 697.787,58.3646 699.5,59.5C 699.5,59.8333 699.5,60.1667 699.5,60.5C 701.194,68.9145 703.86,76.9145 707.5,84.5C 707.132,88.0443 708.132,91.0443 710.5,93.5C 712.232,97.6973 713.565,102.031 714.5,106.5C 714.5,107.5 714.5,108.5 714.5,109.5C 706.228,110.085 698.228,109.418 690.5,107.5C 690.286,105.856 690.62,104.356 691.5,103C 690.309,102.302 689.309,101.469 688.5,100.5C 688.33,99.1779 688.663,98.0113 689.5,97C 688.309,96.3021 687.309,95.4687 686.5,94.5C 684.595,90.7843 683.261,86.7843 682.5,82.5C 682.741,80.1016 682.074,78.1016 680.5,76.5C 679.577,74.233 678.744,71.8997 678,69.5C 664.5,83 651,96.5 637.5,110C 629.841,110.5 622.174,110.666 614.5,110.5C 613.494,110.062 613.494,109.396 614.5,108.5C 617.167,105.167 620.167,102.167 623.5,99.5C 631.745,92.7601 639.578,85.4268 647,77.5C 647.464,76.9056 647.631,76.2389 647.5,75.5C 655.411,69.0939 662.911,62.0939 670,54.5C 670.74,53.2506 670.573,52.2506 669.5,51.5C 666.393,44.5077 664.059,37.1743 662.5,29.5C 663.962,26.358 663.295,24.358 660.5,23.5C 658.723,20.4954 657.723,17.1621 657.5,13.5C 657.737,12.209 657.404,11.209 656.5,10.5C 657.962,7.358 657.295,5.358 654.5,4.5C 653.463,3.06967 652.796,1.40301 652.5,-0.5 Z"/></g>
<g><path style="opacity:0.998" fill="#1f68a0" d="M 761.5,-0.5 C 790.5,-0.5 819.5,-0.5 848.5,-0.5C 847.193,5.58707 845.193,11.4204 842.5,17C 831.172,17.4999 819.838,17.6665 808.5,17.5C 808.072,20.7846 807.072,23.7846 805.5,26.5C 803.049,28.896 802.049,31.896 802.5,35.5C 794.936,60.526 786.603,85.1926 777.5,109.5C 771.5,109.5 765.5,109.5 759.5,109.5C 759.5,108.167 759.5,106.833 759.5,105.5C 759.263,104.209 759.596,103.209 760.5,102.5C 762.585,100.316 763.585,97.6489 763.5,94.5C 764.435,90.0307 765.768,85.6973 767.5,81.5C 769.213,80.3646 769.88,78.698 769.5,76.5C 769.5,76.1667 769.5,75.8333 769.5,75.5C 771.213,74.3646 771.88,72.698 771.5,70.5C 771.5,70.1667 771.5,69.8333 771.5,69.5C 773.213,68.3646 773.88,66.698 773.5,64.5C 773.5,64.1667 773.5,63.8333 773.5,63.5C 775.213,62.3646 775.88,60.698 775.5,58.5C 777.074,56.8984 777.741,54.8984 777.5,52.5C 777.5,52.1667 777.5,51.8333 777.5,51.5C 778.117,51.3893 778.617,51.056 779,50.5C 781.149,44.555 782.983,38.555 784.5,32.5C 785.261,28.2157 786.595,24.2157 788.5,20.5C 789.434,19.4324 789.768,18.099 789.5,16.5C 778.833,16.5 768.167,16.5 757.5,16.5C 757.5,15.1667 757.5,13.8333 757.5,12.5C 757.5,12.1667 757.5,11.8333 757.5,11.5C 759.213,10.3646 759.88,8.69798 759.5,6.5C 759.5,6.16667 759.5,5.83333 759.5,5.5C 761.213,4.36465 761.88,2.69798 761.5,0.5C 761.5,0.166667 761.5,-0.166667 761.5,-0.5 Z"/></g>
<g><path style="opacity:0.796" fill="#7ccbe7" d="M 119.5,-0.5 C 120.167,-0.5 120.833,-0.5 121.5,-0.5C 121.5,36.1667 121.5,72.8333 121.5,109.5C 127.167,109.5 132.833,109.5 138.5,109.5C 138.5,72.8333 138.5,36.1667 138.5,-0.5C 139.167,-0.5 139.833,-0.5 140.5,-0.5C 140.5,36.5 140.5,73.5 140.5,110.5C 133.5,110.5 126.5,110.5 119.5,110.5C 119.5,73.5 119.5,36.5 119.5,-0.5 Z"/></g>
<g><path style="opacity:0.999" fill="#13b0da" d="M 121.5,-0.5 C 127.167,-0.5 132.833,-0.5 138.5,-0.5C 138.5,36.1667 138.5,72.8333 138.5,109.5C 132.833,109.5 127.167,109.5 121.5,109.5C 121.5,72.8333 121.5,36.1667 121.5,-0.5 Z"/></g>
<g><path style="opacity:0.788" fill="#97d7ec" d="M 319.5,-0.5 C 319.833,-0.5 320.167,-0.5 320.5,-0.5C 320.472,2.91642 319.472,5.91642 317.5,8.5C 318.167,5.5 318.833,2.5 319.5,-0.5 Z"/></g>
<g><path style="opacity:0.255" fill="#aecee1" d="M 515.5,-0.5 C 515.833,-0.5 516.167,-0.5 516.5,-0.5C 516.34,1.15298 515.674,2.48631 514.5,3.5C 514.433,2.04125 514.766,0.707917 515.5,-0.5 Z"/></g>
<g><path style="opacity:0.918" fill="#7ba6c8" d="M 676.5,-0.5 C 676.833,-0.5 677.167,-0.5 677.5,-0.5C 677.963,2.22102 678.629,4.88769 679.5,7.5C 677.345,5.38264 676.345,2.71597 676.5,-0.5 Z"/></g>
<g><path style="opacity:0.749" fill="#8fb8d4" d="M 432.5,0.5 C 432.741,2.89837 432.074,4.89837 430.5,6.5C 430.595,4.2143 431.262,2.2143 432.5,0.5 Z"/></g>
<g><path style="opacity:0.878" fill="#84abcb" d="M 761.5,0.5 C 761.88,2.69798 761.213,4.36465 759.5,5.5C 759.796,3.59699 760.463,1.93033 761.5,0.5 Z"/></g>
<g><path style="opacity:0.816" fill="#90d3ea" d="M 338.5,1.5 C 340.277,4.50456 341.277,7.83789 341.5,11.5C 339.723,8.49544 338.723,5.16211 338.5,1.5 Z"/></g>
<g><path style="opacity:1" fill="#6392bc" d="M 654.5,4.5 C 657.295,5.358 657.962,7.358 656.5,10.5C 655.262,8.7857 654.595,6.7857 654.5,4.5 Z"/></g>
<g><path style="opacity:0.882" fill="#80a9ca" d="M 514.5,4.5 C 514.655,7.71597 513.655,10.3826 511.5,12.5C 512.129,9.60267 513.129,6.936 514.5,4.5 Z"/></g>
<g><path style="opacity:0.784" fill="#87b1d0" d="M 430.5,6.5 C 430.741,8.89837 430.074,10.8984 428.5,12.5C 428.595,10.2143 429.262,8.2143 430.5,6.5 Z"/></g>
<g><path style="opacity:0.894" fill="#7ca7c9" d="M 759.5,6.5 C 759.88,8.69798 759.213,10.3646 757.5,11.5C 757.796,9.59699 758.463,7.93033 759.5,6.5 Z"/></g>
<g><path style="opacity:0.859" fill="#85aecd" d="M 679.5,8.5 C 682.276,14.4993 684.276,20.8327 685.5,27.5C 682.724,21.5007 680.724,15.1673 679.5,8.5 Z"/></g>
<g><path style="opacity:0.878" fill="#8ed4eb" d="M 317.5,9.5 C 316.943,14.1646 315.61,18.4979 313.5,22.5C 314.057,17.8354 315.39,13.5021 317.5,9.5 Z"/></g>
<g><path style="opacity:0.098" fill="#a6d0e5" d="M 656.5,10.5 C 657.404,11.209 657.737,12.209 657.5,13.5C 656.761,13.631 656.094,13.4643 655.5,13C 656.252,12.3292 656.586,11.4959 656.5,10.5 Z"/></g>
<g><path style="opacity:0.475" fill="#8eb9d5" d="M 531.5,11.5 C 531.072,14.7846 530.072,17.7846 528.5,20.5C 528.528,17.0836 529.528,14.0836 531.5,11.5 Z"/></g>
<g><path style="opacity:0.8" fill="#8bb2cf" d="M 428.5,12.5 C 428.655,15.716 427.655,18.3826 425.5,20.5C 426.129,17.6027 427.129,14.936 428.5,12.5 Z"/></g>
<g><path style="opacity:0.592" fill="#81d0e9" d="M 157.5,-0.5 C 157.833,-0.5 158.167,-0.5 158.5,-0.5C 158.5,5.16667 158.5,10.8333 158.5,16.5C 184.5,16.5 210.5,16.5 236.5,16.5C 236.5,10.8333 236.5,5.16667 236.5,-0.5C 236.833,-0.5 237.167,-0.5 237.5,-0.5C 237.5,5.5 237.5,11.5 237.5,17.5C 210.833,17.5 184.167,17.5 157.5,17.5C 157.5,11.5 157.5,5.5 157.5,-0.5 Z"/></g>
<g><path style="opacity:0.996" fill="#14b0db" d="M 158.5,-0.5 C 184.5,-0.5 210.5,-0.5 236.5,-0.5C 236.5,5.16667 236.5,10.8333 236.5,16.5C 210.5,16.5 184.5,16.5 158.5,16.5C 158.5,10.8333 158.5,5.16667 158.5,-0.5 Z"/></g>
<g><path style="opacity:0.592" fill="#6297be" d="M 553.5,14.5 C 579.145,16.491 605.145,17.1576 631.5,16.5C 605.339,17.4978 579.005,17.8312 552.5,17.5C 552.263,16.209 552.596,15.209 553.5,14.5 Z"/></g>
<g><path style="opacity:0.173" fill="#94b8d4" d="M 757.5,12.5 C 757.5,13.8333 757.5,15.1667 757.5,16.5C 768.167,16.5 778.833,16.5 789.5,16.5C 789.768,18.099 789.434,19.4324 788.5,20.5C 788.5,19.5 788.5,18.5 788.5,17.5C 777.48,17.8321 766.48,17.4988 755.5,16.5C 755.994,14.9745 756.661,13.6412 757.5,12.5 Z"/></g>
<g><path style="opacity:1" fill="#5488b5" d="M 511.5,13.5 C 511.08,15.674 511.08,17.674 511.5,19.5C 510.162,21.2748 508.829,22.9414 507.5,24.5C 508.462,20.6052 509.796,16.9385 511.5,13.5 Z"/></g>
<g><path style="opacity:0.831" fill="#96d7ec" d="M 343.5,17.5 C 345.072,20.2154 346.072,23.2154 346.5,26.5C 344.528,23.9164 343.528,20.9164 343.5,17.5 Z"/></g>
<g><path style="opacity:1" fill="#6e98c0" d="M 660.5,23.5 C 663.295,24.358 663.962,26.358 662.5,29.5C 661.262,27.7857 660.595,25.7857 660.5,23.5 Z"/></g>
<g><path style="opacity:0.906" fill="#8cd3eb" d="M 313.5,22.5 C 312.806,27.915 311.14,32.915 308.5,37.5C 309.595,32.2159 311.261,27.2159 313.5,22.5 Z"/></g>
<g><path style="opacity:0.859" fill="#89afce" d="M 424.5,24.5 C 424.88,26.698 424.213,28.3646 422.5,29.5C 422.796,27.597 423.463,25.9303 424.5,24.5 Z"/></g>
<g><path style="opacity:0.945" fill="#77a5c8" d="M 507.5,25.5 C 507.88,27.698 507.213,29.3646 505.5,30.5C 506.171,29.1529 506.171,27.9862 505.5,27C 506.044,26.2828 506.711,25.7828 507.5,25.5 Z"/></g>
<g><path style="opacity:1" fill="#618fba" d="M 805.5,26.5 C 805.072,29.7846 804.072,32.7846 802.5,35.5C 802.049,31.896 803.049,28.896 805.5,26.5 Z"/></g>
<g><path style="opacity:0.878" fill="#83accd" d="M 441.5,31.5 C 441.56,30.9569 441.893,30.6236 442.5,30.5C 443.386,31.325 443.719,32.325 443.5,33.5C 442.833,32.8333 442.167,32.1667 441.5,31.5 Z"/></g>
<g><path style="opacity:0.882" fill="#87adcd" d="M 422.5,30.5 C 422.88,32.698 422.213,34.3646 420.5,35.5C 420.796,33.597 421.463,31.9303 422.5,30.5 Z"/></g>
<g><path style="opacity:0.027" fill="#c0e6f3" d="M 328.5,35.5 C 328.56,34.9569 328.893,34.6236 329.5,34.5C 330.386,35.325 330.719,36.325 330.5,37.5C 329.833,36.8333 329.167,36.1667 328.5,35.5 Z"/></g>
<g><path style="opacity:0.816" fill="#99d8ed" d="M 348.5,33.5 C 350.072,36.2154 351.072,39.2154 351.5,42.5C 349.528,39.9164 348.528,36.9164 348.5,33.5 Z"/></g>
<g><path style="opacity:0.769" fill="#89b0cf" d="M 784.5,32.5 C 782.983,38.555 781.149,44.555 779,50.5C 778.617,51.056 778.117,51.3893 777.5,51.5C 779.266,44.8607 781.599,38.5273 784.5,32.5 Z"/></g>
<g><path style="opacity:0.894" fill="#81a9ca" d="M 420.5,36.5 C 420.88,38.698 420.213,40.3646 418.5,41.5C 418.796,39.597 419.463,37.9303 420.5,36.5 Z"/></g>
<g><path style="opacity:0.749" fill="#7aa8ca" d="M 503.5,37.5 C 503.585,40.6489 502.585,43.3155 500.5,45.5C 500.733,42.4582 501.733,39.7916 503.5,37.5 Z"/></g>
<g><path style="opacity:0.169" fill="#4785b3" d="M 614.5,48.5 C 603.019,47.1676 591.186,46.501 579,46.5C 566.76,46.5096 554.593,46.8429 542.5,47.5C 566.477,45.5097 590.81,44.843 615.5,45.5C 615.737,46.791 615.404,47.791 614.5,48.5 Z"/></g>
<g><path style="opacity:0.773" fill="#94d6ec" d="M 306.5,44.5 C 306.59,47.1522 305.924,49.4855 304.5,51.5C 304.41,48.8478 305.076,46.5145 306.5,44.5 Z"/></g>
<g><path style="opacity:0.965" fill="#67c5e4" d="M 230.5,46.5 C 206.833,46.5 183.167,46.5 159.5,46.5C 159.5,67.5 159.5,88.5 159.5,109.5C 185.833,109.5 212.167,109.5 238.5,109.5C 238.5,103.833 238.5,98.1667 238.5,92.5C 239.49,98.31 239.823,104.31 239.5,110.5C 212.167,110.5 184.833,110.5 157.5,110.5C 157.5,88.8333 157.5,67.1667 157.5,45.5C 182.006,45.169 206.339,45.5024 230.5,46.5 Z"/></g>
<g><path style="opacity:1" fill="#15b1db" d="M 230.5,46.5 C 230.5,51.8333 230.5,57.1667 230.5,62.5C 212.659,62.1699 194.992,62.5033 177.5,63.5C 177.5,73.1667 177.5,82.8333 177.5,92.5C 197.833,92.5 218.167,92.5 238.5,92.5C 238.5,98.1667 238.5,103.833 238.5,109.5C 212.167,109.5 185.833,109.5 159.5,109.5C 159.5,88.5 159.5,67.5 159.5,46.5C 183.167,46.5 206.833,46.5 230.5,46.5 Z"/></g>
<g><path style="opacity:1" fill="#6d9ac1" d="M 472.5,45.5 C 474.008,47.1815 475.008,49.1815 475.5,51.5C 473.087,50.3202 472.087,48.3202 472.5,45.5 Z"/></g>
<g><path style="opacity:1" fill="#19669f" d="M 614.5,48.5 C 613.739,52.7843 612.405,56.7843 610.5,60.5C 609.662,60.8417 609.328,61.5084 609.5,62.5C 591.5,62.5 573.5,62.5 555.5,62.5C 555.5,63.5 555.5,64.5 555.5,65.5C 552.833,74.5 550.167,83.5 547.5,92.5C 567.409,92.8264 587.243,92.4931 607,91.5C 606.606,97.178 605.106,102.511 602.5,107.5C 589.222,108.815 575.722,109.482 562,109.5C 548.833,109.167 535.667,108.833 522.5,108.5C 523.785,105.979 524.452,103.313 524.5,100.5C 524.5,100.167 524.5,99.8333 524.5,99.5C 526.213,98.3646 526.88,96.698 526.5,94.5C 526.5,94.1667 526.5,93.8333 526.5,93.5C 528.213,92.3646 528.88,90.698 528.5,88.5C 528.595,86.2143 529.262,84.2143 530.5,82.5C 532.074,80.8984 532.741,78.8984 532.5,76.5C 534.971,68.4214 537.637,60.4214 540.5,52.5C 542.213,51.3646 542.88,49.698 542.5,47.5C 554.593,46.8429 566.76,46.5096 579,46.5C 591.186,46.501 603.019,47.1676 614.5,48.5 Z"/></g>
<g><path style="opacity:1" fill="#5286b4" d="M 418.5,42.5 C 418.264,45.9139 417.598,49.2473 416.5,52.5C 415.817,52.8627 415.15,53.1961 414.5,53.5C 415.462,49.6052 416.796,45.9385 418.5,42.5 Z"/></g>
<g><path style="opacity:0.906" fill="#7ea7c8" d="M 542.5,47.5 C 542.88,49.698 542.213,51.3646 540.5,52.5C 540.796,50.597 541.463,48.9303 542.5,47.5 Z"/></g>
<g><path style="opacity:0.8" fill="#8db3d0" d="M 499.5,48.5 C 499.741,50.8984 499.074,52.8984 497.5,54.5C 497.595,52.2143 498.262,50.2143 499.5,48.5 Z"/></g>
<g><path style="opacity:0.839" fill="#83abcb" d="M 777.5,52.5 C 777.741,54.8984 777.074,56.8984 775.5,58.5C 775.595,56.2143 776.262,54.2143 777.5,52.5 Z"/></g>
<g><path style="opacity:0.82" fill="#8eb4d1" d="M 497.5,54.5 C 497.655,57.716 496.655,60.3826 494.5,62.5C 495.129,59.6027 496.129,56.936 497.5,54.5 Z"/></g>
<g><path style="opacity:0.918" fill="#76a3c6" d="M 697.5,54.5 C 698.537,55.9303 699.204,57.597 699.5,59.5C 697.787,58.3646 697.12,56.698 697.5,54.5 Z"/></g>
<g><path style="opacity:0.859" fill="#89b2d0" d="M 775.5,58.5 C 775.88,60.698 775.213,62.3646 773.5,63.5C 773.062,63.5654 772.728,63.3988 772.5,63C 773.781,61.5913 774.781,60.0913 775.5,58.5 Z"/></g>
<g><path style="opacity:0.553" fill="#67c9e6" d="M 230.5,46.5 C 231.489,51.9753 231.822,57.642 231.5,63.5C 213.5,63.5 195.5,63.5 177.5,63.5C 194.992,62.5033 212.659,62.1699 230.5,62.5C 230.5,57.1667 230.5,51.8333 230.5,46.5 Z"/></g>
<g><path style="opacity:0.553" fill="#5790ba" d="M 609.5,62.5 C 609.5,63.1667 609.167,63.5 608.5,63.5C 590.596,62.8682 572.93,63.5349 555.5,65.5C 555.5,64.5 555.5,63.5 555.5,62.5C 573.5,62.5 591.5,62.5 609.5,62.5 Z"/></g>
<g><path style="opacity:0.008" fill="#b5d8e9" d="M 610.5,60.5 C 610.762,61.9778 610.429,63.3112 609.5,64.5C 608.893,64.3764 608.56,64.0431 608.5,63.5C 609.167,63.5 609.5,63.1667 609.5,62.5C 609.328,61.5084 609.662,60.8417 610.5,60.5 Z"/></g>
<g><path style="opacity:0.882" fill="#87aecd" d="M 699.5,60.5 C 702.739,68.2161 705.405,76.2161 707.5,84.5C 703.86,76.9145 701.194,68.9145 699.5,60.5 Z"/></g>
<g><path style="opacity:0.859" fill="#89afce" d="M 494.5,63.5 C 494.88,65.698 494.213,67.3646 492.5,68.5C 492.796,66.597 493.463,64.9303 494.5,63.5 Z"/></g>
<g><path style="opacity:0.82" fill="#78a4c8" d="M 669.5,51.5 C 670.573,52.2506 670.74,53.2506 670,54.5C 662.911,62.0939 655.411,69.0939 647.5,75.5C 655.224,67.7797 662.557,59.7797 669.5,51.5 Z"/></g>
<g><path style="opacity:0.882" fill="#85accc" d="M 773.5,64.5 C 773.88,66.698 773.213,68.3646 771.5,69.5C 771.796,67.597 772.463,65.9303 773.5,64.5 Z"/></g>
<g><path style="opacity:0.831" fill="#97d7ec" d="M 358.5,65.5 C 360.072,68.2154 361.072,71.2154 361.5,74.5C 359.528,71.9164 358.528,68.9164 358.5,65.5 Z"/></g>
<g><path style="opacity:0.871" fill="#83abcb" d="M 492.5,69.5 C 492.88,71.698 492.213,73.3646 490.5,74.5C 490.796,72.597 491.463,70.9303 492.5,69.5 Z"/></g>
<g><path style="opacity:0.906" fill="#80a8c9" d="M 771.5,70.5 C 771.88,72.698 771.213,74.3646 769.5,75.5C 769.796,73.597 770.463,71.9303 771.5,70.5 Z"/></g>
<g><path style="opacity:0.8" fill="#8bb1cf" d="M 407.5,74.5 C 407.323,78.7076 405.99,82.3743 403.5,85.5C 404.462,81.6052 405.796,77.9385 407.5,74.5 Z"/></g>
<g><path style="opacity:0.769" fill="#92b7d3" d="M 532.5,76.5 C 532.741,78.8984 532.074,80.8984 530.5,82.5C 530.595,80.2143 531.262,78.2143 532.5,76.5 Z"/></g>
<g><path style="opacity:0.475" fill="#90b6d2" d="M 680.5,76.5 C 682.074,78.1016 682.741,80.1016 682.5,82.5C 681.262,80.7857 680.595,78.7857 680.5,76.5 Z"/></g>
<g><path style="opacity:0.929" fill="#7aa4c7" d="M 769.5,76.5 C 769.88,78.698 769.213,80.3646 767.5,81.5C 767.796,79.597 768.463,77.9303 769.5,76.5 Z"/></g>
<g><path style="opacity:0.584" fill="#8bb2cf" d="M 490.5,75.5 C 490.643,77.2624 490.309,78.9291 489.5,80.5C 488.306,81.6704 487.639,81.337 487.5,79.5C 488.857,78.4097 489.857,77.0764 490.5,75.5 Z"/></g>
<g><path style="opacity:0.839" fill="#82abcb" d="M 403.5,86.5 C 403.741,88.8984 403.074,90.8984 401.5,92.5C 401.595,90.2143 402.262,88.2143 403.5,86.5 Z"/></g>
<g><path style="opacity:0.004" fill="#8bbdd8" d="M 505.5,87.5 C 505.741,89.8984 505.074,91.8984 503.5,93.5C 503.595,91.2143 504.262,89.2143 505.5,87.5 Z"/></g>
<g><path style="opacity:0.749" fill="#83aece" d="M 707.5,84.5 C 709.072,87.2154 710.072,90.2154 710.5,93.5C 708.132,91.0443 707.132,88.0443 707.5,84.5 Z"/></g>
<g><path style="opacity:0.82" fill="#8cb1cf" d="M 528.5,88.5 C 528.88,90.698 528.213,92.3646 526.5,93.5C 526.796,91.597 527.463,89.9303 528.5,88.5 Z"/></g>
<g><path style="opacity:0.937" fill="#6091bb" d="M 647.5,75.5 C 647.631,76.2389 647.464,76.9056 647,77.5C 639.578,85.4268 631.745,92.7601 623.5,99.5C 631.167,91.1667 639.167,83.1667 647.5,75.5 Z"/></g>
<g><path style="opacity:0.871" fill="#88aecd" d="M 401.5,92.5 C 401.655,95.716 400.655,98.3826 398.5,100.5C 399.129,97.6027 400.129,94.936 401.5,92.5 Z"/></g>
<g><path style="opacity:1" fill="#6b98c0" d="M 686.5,94.5 C 687.309,95.4687 688.309,96.3021 689.5,97C 688.663,98.0113 688.33,99.1779 688.5,100.5C 687.262,98.7857 686.595,96.7857 686.5,94.5 Z"/></g>
<g><path style="opacity:0.859" fill="#82abcb" d="M 526.5,94.5 C 526.88,96.698 526.213,98.3646 524.5,99.5C 524.796,97.597 525.463,95.9303 526.5,94.5 Z"/></g>
<g><path style="opacity:0.749" fill="#80adce" d="M 763.5,94.5 C 763.585,97.6489 762.585,100.316 760.5,102.5C 760.733,99.4582 761.733,96.7916 763.5,94.5 Z"/></g>
<g><path style="opacity:1" fill="#6a97bf" d="M 688.5,100.5 C 689.309,101.469 690.309,102.302 691.5,103C 690.62,104.356 690.286,105.856 690.5,107.5C 689.388,105.401 688.721,103.067 688.5,100.5 Z"/></g>
<g><path style="opacity:0.906" fill="#81a9ca" d="M 398.5,101.5 C 398.88,103.698 398.213,105.365 396.5,106.5C 396.796,104.597 397.463,102.93 398.5,101.5 Z"/></g>
<g><path style="opacity:0.584" fill="#84d3ec" d="M 285.5,108.5 C 292.078,109.46 298.745,109.793 305.5,109.5C 302.351,110.165 299.018,110.498 295.5,110.5C 291.761,110.486 288.428,109.82 285.5,108.5 Z"/></g>
<g><path style="opacity:0.733" fill="#6097be" d="M 396.5,107.5 C 399.087,108.816 402.087,109.483 405.5,109.5C 408.917,109.461 412.25,109.127 415.5,108.5C 409.332,110.178 402.832,111.178 396,111.5C 393.975,109.722 394.141,108.389 396.5,107.5 Z"/></g>
<g><path style="opacity:0.733" fill="#508ab6" d="M 475.5,106.5 C 477.485,106.859 478.151,107.692 477.5,109C 484.492,109.5 491.492,109.666 498.5,109.5C 491.323,110.819 483.99,110.819 476.5,109.5C 475.873,108.583 475.539,107.583 475.5,106.5 Z"/></g>
<g><path style="opacity:0.733" fill="#528db7" d="M 524.5,100.5 C 524.452,103.313 523.785,105.979 522.5,108.5C 535.667,108.833 548.833,109.167 562,109.5C 575.722,109.482 589.222,108.815 602.5,107.5C 602.5,108.5 602.5,109.5 602.5,110.5C 575.259,110.172 548.093,110.505 521,111.5C 521.466,107.604 522.632,103.937 524.5,100.5 Z"/></g>
<g><path style="opacity:0.733" fill="#5790ba" d="M 714.5,106.5 C 715.703,107.943 716.203,109.609 716,111.5C 707.585,110.517 699.085,110.183 690.5,110.5C 690.5,109.5 690.5,108.5 690.5,107.5C 698.228,109.418 706.228,110.085 714.5,109.5C 714.5,108.5 714.5,107.5 714.5,106.5 Z"/></g>
<g><path style="opacity:0.733" fill="#5891ba" d="M 759.5,105.5 C 759.5,106.833 759.5,108.167 759.5,109.5C 765.5,109.5 771.5,109.5 777.5,109.5C 771.099,110.184 764.599,110.85 758,111.5C 757.595,109.225 758.095,107.225 759.5,105.5 Z"/></g>
<g><path style="opacity:0.02" fill="#b2d9ea" d="M 614.5,108.5 C 613.494,109.396 613.494,110.062 614.5,110.5C 613.698,111.885 613.031,111.718 612.5,110C 612.836,108.97 613.503,108.47 614.5,108.5 Z"/></g>
<g><path style="opacity:0.742" fill="#6acae6" d="M 292.5,140.5 C 290.648,139.911 288.815,139.244 287,138.5C 286.5,148.828 286.334,159.161 286.5,169.5C 287.5,169.5 288.5,169.5 289.5,169.5C 289.169,161.472 289.502,153.472 290.5,145.5C 291.298,145.957 291.631,146.624 291.5,147.5C 290.508,154.982 290.175,162.648 290.5,170.5C 288.833,170.5 287.167,170.5 285.5,170.5C 285.5,159.5 285.5,148.5 285.5,137.5C 287.527,137.338 289.527,137.505 291.5,138C 292.252,138.671 292.586,139.504 292.5,140.5 Z"/></g>
<g><path style="opacity:0.486" fill="#7fd2ea" d="M 311.5,138.5 C 310.167,138.5 308.833,138.5 307.5,138.5C 307.666,146.84 307.5,155.173 307,163.5C 306.283,162.956 305.783,162.289 305.5,161.5C 306.492,153.684 306.826,145.684 306.5,137.5C 308.415,137.216 310.081,137.549 311.5,138.5 Z"/></g>
<g><path style="opacity:0.914" fill="#2eb3dc" d="M 292.5,140.5 C 297.222,147.23 301.555,154.23 305.5,161.5C 305.783,162.289 306.283,162.956 307,163.5C 307.5,155.173 307.666,146.84 307.5,138.5C 308.833,138.5 310.167,138.5 311.5,138.5C 311.5,149.167 311.5,159.833 311.5,170.5C 309.208,170.756 307.041,170.423 305,169.5C 300.275,162.281 295.775,154.948 291.5,147.5C 291.631,146.624 291.298,145.957 290.5,145.5C 289.502,153.472 289.169,161.472 289.5,169.5C 288.5,169.5 287.5,169.5 286.5,169.5C 286.334,159.161 286.5,148.828 287,138.5C 288.815,139.244 290.648,139.911 292.5,140.5 Z"/></g>
<g><path style="opacity:0.388" fill="#4c88b5" d="M 341.5,138.5 C 343.265,137.539 345.265,137.205 347.5,137.5C 347.5,148.833 347.5,160.167 347.5,171.5C 347.167,171.5 346.833,171.5 346.5,171.5C 345.432,170.566 344.099,170.232 342.5,170.5C 343.568,169.566 344.901,169.232 346.5,169.5C 346.5,159.167 346.5,148.833 346.5,138.5C 344.833,138.5 343.167,138.5 341.5,138.5 Z"/></g>
<g><path style="opacity:0.616" fill="#4d88b4" d="M 378.5,138.5 C 372.833,138.5 367.167,138.5 361.5,138.5C 361.5,148.833 361.5,159.167 361.5,169.5C 366.695,169.179 371.695,169.513 376.5,170.5C 371.167,170.5 365.833,170.5 360.5,170.5C 360.5,159.5 360.5,148.5 360.5,137.5C 366.69,137.177 372.69,137.51 378.5,138.5 Z"/></g>
<g><path style="opacity:0.545" fill="#7eaac9" d="M 403.5,138.5 C 401.5,138.5 399.5,138.5 397.5,138.5C 397.5,148.833 397.5,159.167 397.5,169.5C 397.5,169.833 397.5,170.167 397.5,170.5C 396.505,159.679 396.172,148.679 396.5,137.5C 399.059,137.198 401.393,137.532 403.5,138.5 Z"/></g>
<g><path style="opacity:0.22" fill="#5e93bc" d="M 417.5,161.5 C 417.688,159.897 417.188,158.563 416,157.5C 415.623,158.942 414.79,159.942 413.5,160.5C 415.463,153.608 417.796,146.941 420.5,140.5C 420.567,142.401 420.233,144.234 419.5,146C 420.24,148.943 421.24,149.109 422.5,146.5C 423.497,154.138 423.831,161.804 423.5,169.5C 424.833,169.5 426.167,169.5 427.5,169.5C 427.5,159.167 427.5,148.833 427.5,138.5C 425.05,138.298 422.717,138.631 420.5,139.5C 422.635,137.631 425.302,136.964 428.5,137.5C 428.5,148.5 428.5,159.5 428.5,170.5C 426.5,170.5 424.5,170.5 422.5,170.5C 422.666,163.492 422.5,156.492 422,149.5C 420.769,153.704 419.269,157.704 417.5,161.5 Z"/></g>
<g><path style="opacity:0.396" fill="#98d7ec" d="M 499.5,162.5 C 498.508,154.684 498.174,146.684 498.5,138.5C 497.167,138.5 495.833,138.5 494.5,138.5C 494.5,146.833 494.5,155.167 494.5,163.5C 493.507,155.016 493.174,146.349 493.5,137.5C 495.5,137.5 497.5,137.5 499.5,137.5C 499.5,145.833 499.5,154.167 499.5,162.5 Z"/></g>
<g><path style="opacity:0.098" fill="#8cd2e9" d="M 549.5,138.5 C 543.833,138.5 538.167,138.5 532.5,138.5C 532.5,149.167 532.5,159.833 532.5,170.5C 531.505,159.679 531.172,148.679 531.5,137.5C 537.69,137.177 543.69,137.51 549.5,138.5 Z"/></g>
<g><path style="opacity:0.318" fill="#a0ddef" d="M 608.5,170.5 C 608.5,159.833 608.5,149.167 608.5,138.5C 607.167,138.5 605.833,138.5 604.5,138.5C 604.5,149.167 604.5,159.833 604.5,170.5C 603.505,159.679 603.172,148.679 603.5,137.5C 605.5,137.5 607.5,137.5 609.5,137.5C 609.828,148.679 609.495,159.679 608.5,170.5 Z"/></g>
<g><path style="opacity:0.082" fill="#84d2eb" d="M 660.5,137.5 C 662.5,137.5 664.5,137.5 666.5,137.5C 666.5,148.5 666.5,159.5 666.5,170.5C 664.5,170.5 662.5,170.5 660.5,170.5C 660.5,159.5 660.5,148.5 660.5,137.5 Z"/></g>
<g><path style="opacity:0.844" fill="#39b7dd" d="M 714.5,137.5 C 721.921,137.109 729.254,137.609 736.5,139C 742.125,143.772 742.458,148.772 737.5,154C 738.701,154.903 739.535,156.069 740,157.5C 739.997,161.742 740.83,165.742 742.5,169.5C 739.682,170.88 737.015,170.713 734.5,169C 734.957,168.586 735.291,168.086 735.5,167.5C 734.873,164.298 734.206,161.131 733.5,158C 728.845,157.501 724.179,157.334 719.5,157.5C 719.5,161.833 719.5,166.167 719.5,170.5C 717.833,170.5 716.167,170.5 714.5,170.5C 714.5,159.5 714.5,148.5 714.5,137.5 Z M 719.5,142.5 C 723.846,142.334 728.179,142.501 732.5,143C 736.505,146.36 736.172,149.36 731.5,152C 727.514,152.499 723.514,152.666 719.5,152.5C 719.5,149.167 719.5,145.833 719.5,142.5 Z"/></g>
<g><path style="opacity:0.734" fill="#65c8e6" d="M 639.5,138.5 C 634.167,138.5 628.833,138.5 623.5,138.5C 623.5,148.833 623.5,159.167 623.5,169.5C 628.167,169.5 632.833,169.5 637.5,169.5C 638.5,169.5 639.5,169.5 640.5,169.5C 634.69,170.49 628.69,170.823 622.5,170.5C 622.5,159.5 622.5,148.5 622.5,137.5C 628.358,137.178 634.025,137.511 639.5,138.5 Z"/></g>
<g><path style="opacity:1" fill="#58bee1" d="M 269.5,151.5 C 268.312,150.316 267.145,150.316 266,151.5C 265.544,152.744 266.044,153.577 267.5,154C 266.663,155.011 266.33,156.178 266.5,157.5C 263.167,157.5 259.833,157.5 256.5,157.5C 256.509,155.692 256.009,154.025 255,152.5C 254.623,153.942 253.79,154.942 252.5,155.5C 254.702,149.562 256.702,143.562 258.5,137.5C 260.833,137.5 263.167,137.5 265.5,137.5C 266.63,142.224 267.964,146.891 269.5,151.5 Z M 261.5,145.5 C 263.002,148.654 264.336,151.987 265.5,155.5C 262.894,156.652 260.227,156.818 257.5,156C 258.935,152.527 260.268,149.027 261.5,145.5 Z"/></g>
<g><path style="opacity:1" fill="#14669f" d="M 341.5,138.5 C 343.167,138.5 344.833,138.5 346.5,138.5C 346.5,148.833 346.5,159.167 346.5,169.5C 344.901,169.232 343.568,169.566 342.5,170.5C 341.506,160.013 341.172,149.346 341.5,138.5 Z"/></g>
<g><path style="opacity:1" fill="#316fa6" d="M 378.5,138.5 C 380.749,139.08 382.415,140.413 383.5,142.5C 383.66,144.199 383.494,145.866 383,147.5C 382.086,143.815 381.419,144.148 381,148.5C 380.768,147.263 380.268,146.263 379.5,145.5C 378.662,145.158 378.328,144.492 378.5,143.5C 376.366,141.967 373.866,141.3 371,141.5C 368.967,141.506 367.134,141.839 365.5,142.5C 365.5,145.5 365.5,148.5 365.5,151.5C 366.964,152.16 368.631,152.493 370.5,152.5C 373.205,152.684 375.538,152.017 377.5,150.5C 378.167,150.5 378.833,150.5 379.5,150.5C 380.212,153.235 381.878,155.235 384.5,156.5C 387.101,160.11 386.934,163.777 384,167.5C 381.765,169.202 379.265,170.202 376.5,170.5C 371.695,169.513 366.695,169.179 361.5,169.5C 361.5,159.167 361.5,148.833 361.5,138.5C 367.167,138.5 372.833,138.5 378.5,138.5 Z M 380.5,158.5 C 379.167,160.167 379.167,161.833 380.5,163.5C 379.711,163.783 379.044,164.283 378.5,165C 374.179,165.499 369.846,165.666 365.5,165.5C 365.5,162.5 365.5,159.5 365.5,156.5C 369.846,156.334 374.179,156.501 378.5,157C 379.044,157.717 379.711,158.217 380.5,158.5 Z"/></g>
<g><path style="opacity:1" fill="#0d619c" d="M 403.5,138.5 C 403.433,140.401 403.767,142.234 404.5,144C 403.76,146.943 402.76,147.109 401.5,144.5C 400.502,152.807 400.169,161.14 400.5,169.5C 399.5,169.5 398.5,169.5 397.5,169.5C 397.5,159.167 397.5,148.833 397.5,138.5C 399.5,138.5 401.5,138.5 403.5,138.5 Z"/></g>
<g><path style="opacity:1" fill="#18669f" d="M 420.5,140.5 C 420.5,140.167 420.5,139.833 420.5,139.5C 422.717,138.631 425.05,138.298 427.5,138.5C 427.5,148.833 427.5,159.167 427.5,169.5C 426.167,169.5 424.833,169.5 423.5,169.5C 423.831,161.804 423.497,154.138 422.5,146.5C 421.24,149.109 420.24,148.943 419.5,146C 420.233,144.234 420.567,142.401 420.5,140.5 Z"/></g>
<g><path style="opacity:1" fill="#4ebce0" d="M 481.5,145.5 C 480.817,147.176 479.483,147.843 477.5,147.5C 477.737,146.209 477.404,145.209 476.5,144.5C 470.978,140.055 466.312,140.722 462.5,146.5C 462.919,147.672 463.585,148.672 464.5,149.5C 468.866,150.508 473.2,151.675 477.5,153C 482.992,156.142 484.492,160.642 482,166.5C 480.035,168.55 477.868,170.217 475.5,171.5C 471.833,171.5 468.167,171.5 464.5,171.5C 459.094,169.411 456.427,165.411 456.5,159.5C 458.167,159.5 459.833,159.5 461.5,159.5C 461.444,162.561 462.778,164.728 465.5,166C 469.572,166.956 473.405,166.456 477,164.5C 477.743,162.559 477.576,160.726 476.5,159C 471.989,157.164 467.323,155.83 462.5,155C 457.931,152.459 456.431,148.625 458,143.5C 464.288,135.454 471.621,134.454 480,140.5C 481.009,142.025 481.509,143.692 481.5,145.5 Z"/></g>
<g><path style="opacity:1" fill="#2bb3dc" d="M 518.5,164.5 C 517.92,166.749 516.587,168.415 514.5,169.5C 514.119,168.069 513.119,167.236 511.5,167C 513.651,165.595 515.318,163.761 516.5,161.5C 515.533,153.89 515.2,146.223 515.5,138.5C 516.5,138.5 517.5,138.5 518.5,138.5C 518.5,147.167 518.5,155.833 518.5,164.5 Z"/></g>
<g><path style="opacity:1" fill="#2ab4dc" d="M 549.5,138.5 C 552.712,138.712 554.712,140.379 555.5,143.5C 555.552,145.903 555.219,148.236 554.5,150.5C 552.494,148.32 550.827,145.987 549.5,143.5C 545.548,142.728 541.548,142.395 537.5,142.5C 536.521,145.625 536.187,148.958 536.5,152.5C 541.536,152.938 546.369,152.272 551,150.5C 551.396,152.829 550.562,154.495 548.5,155.5C 544.5,155.5 540.5,155.5 536.5,155.5C 536.5,159.167 536.5,162.833 536.5,166.5C 540.167,166.5 543.833,166.5 547.5,166.5C 549.167,166.5 550.833,166.5 552.5,166.5C 552.5,167.5 552.5,168.5 552.5,169.5C 545.922,170.46 539.255,170.793 532.5,170.5C 532.5,159.833 532.5,149.167 532.5,138.5C 538.167,138.5 543.833,138.5 549.5,138.5 Z M 537.5,142.5 C 541.548,142.395 545.548,142.728 549.5,143.5C 550.768,145.67 550.768,147.837 549.5,150C 545.605,151.266 541.605,151.766 537.5,151.5C 537.5,148.5 537.5,145.5 537.5,142.5 Z"/></g>
<g><path style="opacity:1" fill="#1cb1db" d="M 608.5,170.5 C 607.167,170.5 605.833,170.5 604.5,170.5C 604.5,159.833 604.5,149.167 604.5,138.5C 605.833,138.5 607.167,138.5 608.5,138.5C 608.5,149.167 608.5,159.833 608.5,170.5 Z"/></g>
<g><path style="opacity:1" fill="#10afda" d="M 639.5,138.5 C 639.833,138.5 640.167,138.5 640.5,138.5C 640.343,139.873 640.51,141.207 641,142.5C 641.556,140.405 642.056,140.238 642.5,142C 642.164,143.03 641.497,143.53 640.5,143.5C 640.167,143.5 639.833,143.5 639.5,143.5C 639.389,142.883 639.056,142.383 638.5,142C 634.514,141.501 630.514,141.334 626.5,141.5C 626.174,150.017 626.507,158.35 627.5,166.5C 631.119,166.881 634.452,167.881 637.5,169.5C 632.833,169.5 628.167,169.5 623.5,169.5C 623.5,159.167 623.5,148.833 623.5,138.5C 628.833,138.5 634.167,138.5 639.5,138.5 Z"/></g>
<g><path style="opacity:1" fill="#19b1db" d="M 661.5,138.5 C 662.833,138.5 664.167,138.5 665.5,138.5C 665.5,148.833 665.5,159.167 665.5,169.5C 664.167,169.5 662.833,169.5 661.5,169.5C 661.5,159.167 661.5,148.833 661.5,138.5 Z"/></g>
<g><path style="opacity:1" fill="#57bee1" d="M 762.5,152.5 C 759.134,151.2 758.134,152.2 759.5,155.5C 755.005,150.005 751.338,144.005 748.5,137.5C 750.604,137.201 752.604,137.534 754.5,138.5C 757.622,142.944 760.289,147.61 762.5,152.5 Z"/></g>
<g><path style="opacity:0.514" fill="#4e8cb8" d="M 365.5,142.5 C 367.134,141.839 368.967,141.506 371,141.5C 373.866,141.3 376.366,141.967 378.5,143.5C 374.474,142.969 370.14,142.635 365.5,142.5 Z"/></g>
<g><path style="opacity:0.612" fill="#80d0e9" d="M 639.5,143.5 C 635.566,142.64 631.566,142.307 627.5,142.5C 627.5,150.167 627.5,157.833 627.5,165.5C 630.5,165.5 633.5,165.5 636.5,165.5C 633.713,166.477 630.713,166.81 627.5,166.5C 626.507,158.35 626.174,150.017 626.5,141.5C 630.514,141.334 634.514,141.501 638.5,142C 639.056,142.383 639.389,142.883 639.5,143.5 Z"/></g>
<g><path style="opacity:0.192" fill="#bae2f0" d="M 555.5,143.5 C 556.147,144.274 556.48,145.274 556.5,146.5C 556.66,148.355 555.993,149.688 554.5,150.5C 555.219,148.236 555.552,145.903 555.5,143.5 Z"/></g>
<g><path style="opacity:0.22" fill="#afe0ef" d="M 476.5,144.5 C 477.404,145.209 477.737,146.209 477.5,147.5C 479.483,147.843 480.817,147.176 481.5,145.5C 482.404,146.209 482.737,147.209 482.5,148.5C 480.5,148.5 478.5,148.5 476.5,148.5C 476.5,147.167 476.5,145.833 476.5,144.5 Z"/></g>
<g><path style="opacity:1" fill="#5bbfe1" d="M 765.5,157.5 C 765.662,155.473 765.495,153.473 765,151.5C 764.399,153.359 763.566,153.692 762.5,152.5C 765.559,148.063 768.392,143.397 771,138.5C 773.041,137.577 775.208,137.244 777.5,137.5C 777.649,138.552 777.483,139.552 777,140.5C 773.144,146.232 769.31,151.899 765.5,157.5 Z"/></g>
<g><path style="opacity:1" fill="#4f83b2" d="M 383.5,142.5 C 385.118,146.311 384.451,149.811 381.5,153C 383.426,153.422 384.426,154.589 384.5,156.5C 381.878,155.235 380.212,153.235 379.5,150.5C 379.5,149.5 379.5,148.5 379.5,147.5C 379.5,146.833 379.5,146.167 379.5,145.5C 380.268,146.263 380.768,147.263 381,148.5C 381.419,144.148 382.086,143.815 383,147.5C 383.494,145.866 383.66,144.199 383.5,142.5 Z"/></g>
<g><path style="opacity:0.769" fill="#93b8d4" d="M 379.5,147.5 C 379.5,148.5 379.5,149.5 379.5,150.5C 378.833,150.5 378.167,150.5 377.5,150.5C 377.932,149.29 378.599,148.29 379.5,147.5 Z"/></g>
<g><path style="opacity:0.651" fill="#6496be" d="M 403.5,138.5 C 405.204,141.939 406.538,145.605 407.5,149.5C 404.756,145.508 403.423,146.174 403.5,151.5C 402.71,150.391 402.21,149.058 402,147.5C 401.5,155.159 401.334,162.826 401.5,170.5C 400.167,170.5 398.833,170.5 397.5,170.5C 397.5,170.167 397.5,169.833 397.5,169.5C 398.5,169.5 399.5,169.5 400.5,169.5C 400.169,161.14 400.502,152.807 401.5,144.5C 402.76,147.109 403.76,146.943 404.5,144C 403.767,142.234 403.433,140.401 403.5,138.5 Z"/></g>
<g><path style="opacity:1" fill="#296ca3" d="M 407.5,149.5 C 407.5,149.833 407.5,150.167 407.5,150.5C 408.461,153.328 408.295,155.995 407,158.5C 406.392,156.934 405.558,155.6 404.5,154.5C 403.596,153.791 403.263,152.791 403.5,151.5C 403.423,146.174 404.756,145.508 407.5,149.5 Z"/></g>
<g><path style="opacity:1" fill="#0c619c" d="M 418.5,148.5 C 420.942,150.139 421.109,152.139 419,154.5C 417.311,152.68 417.145,150.68 418.5,148.5 Z"/></g>
<g><path style="opacity:0.678" fill="#6a9ec3" d="M 377.5,150.5 C 375.538,152.017 373.205,152.684 370.5,152.5C 368.631,152.493 366.964,152.16 365.5,151.5C 369.548,151.605 373.548,151.272 377.5,150.5 Z"/></g>
<g><path style="opacity:1" fill="#13b0da" d="M 269.5,151.5 C 269.336,154.187 269.503,156.854 270,159.5C 270.333,159.167 270.667,158.833 271,158.5C 271.402,159.872 271.902,161.205 272.5,162.5C 271.563,164.642 270.23,164.976 268.5,163.5C 268.5,162.5 268.5,161.5 268.5,160.5C 263.489,160.666 258.489,160.499 253.5,160C 252.663,158.989 252.33,157.822 252.5,156.5C 252.5,156.167 252.5,155.833 252.5,155.5C 253.79,154.942 254.623,153.942 255,152.5C 256.009,154.025 256.509,155.692 256.5,157.5C 259.833,157.5 263.167,157.5 266.5,157.5C 266.33,156.178 266.663,155.011 267.5,154C 266.044,153.577 265.544,152.744 266,151.5C 267.145,150.316 268.312,150.316 269.5,151.5 Z"/></g>
<g><path style="opacity:1" fill="#4dbbe0" d="M 585.5,171.5 C 581.833,171.5 578.167,171.5 574.5,171.5C 568.825,169.214 566.159,165.214 566.5,159.5C 570.421,158.93 572.588,160.597 573,164.5C 577.667,167.167 582.333,167.167 587,164.5C 587.743,162.559 587.576,160.726 586.5,159C 580.386,157.452 574.553,155.285 569,152.5C 565.746,142.898 569.246,137.565 579.5,136.5C 587.491,136.646 591.824,140.646 592.5,148.5C 590.5,148.5 588.5,148.5 586.5,148.5C 586.572,143.904 584.238,141.571 579.5,141.5C 575.942,141.559 573.609,143.226 572.5,146.5C 572.919,147.672 573.585,148.672 574.5,149.5C 578.866,150.508 583.2,151.675 587.5,153C 592.992,156.142 594.492,160.642 592,166.5C 590.195,168.826 588.028,170.492 585.5,171.5 Z"/></g>
<g><path style="opacity:1" fill="#4ebbe0" d="M 705.5,171.5 C 705.167,171.5 704.833,171.5 704.5,171.5C 702.782,170.776 700.948,170.109 699,169.5C 698.265,167.129 697.432,164.795 696.5,162.5C 692.541,161.34 688.541,161.173 684.5,162C 683.407,164.443 682.407,166.943 681.5,169.5C 679.709,170.17 678.042,170.837 676.5,171.5C 676.167,171.5 675.833,171.5 675.5,171.5C 679.096,160.382 683.096,149.382 687.5,138.5C 689.695,137.231 691.861,137.231 694,138.5C 697.943,149.498 701.776,160.498 705.5,171.5 Z M 689.5,145.5 C 691.624,148.665 693.291,152.165 694.5,156C 691.773,156.818 689.106,156.652 686.5,155.5C 687.909,152.273 688.909,148.94 689.5,145.5 Z"/></g>
<g><path style="opacity:1" fill="#13b0da" d="M 762.5,152.5 C 763.566,153.692 764.399,153.359 765,151.5C 765.495,153.473 765.662,155.473 765.5,157.5C 764.517,161.298 764.183,165.298 764.5,169.5C 763.5,169.5 762.5,169.5 761.5,169.5C 762.097,164.706 761.43,160.373 759.5,156.5C 759.5,156.167 759.5,155.833 759.5,155.5C 758.134,152.2 759.134,151.2 762.5,152.5 Z"/></g>
<g><path style="opacity:0.349" fill="#bce4f1" d="M 548.5,155.5 C 548.5,155.833 548.5,156.167 548.5,156.5C 544.833,156.5 541.167,156.5 537.5,156.5C 537.5,159.5 537.5,162.5 537.5,165.5C 540.833,165.5 544.167,165.5 547.5,165.5C 547.5,165.833 547.5,166.167 547.5,166.5C 543.833,166.5 540.167,166.5 536.5,166.5C 536.5,162.833 536.5,159.167 536.5,155.5C 540.5,155.5 544.5,155.5 548.5,155.5 Z"/></g>
<g><path style="opacity:1" fill="#6493bc" d="M 407.5,150.5 C 409.204,153.939 410.538,157.605 411.5,161.5C 410.034,160.653 409.2,159.32 409,157.5C 407.991,159.025 407.491,160.692 407.5,162.5C 405.733,160.208 404.733,157.542 404.5,154.5C 405.558,155.6 406.392,156.934 407,158.5C 408.295,155.995 408.461,153.328 407.5,150.5 Z"/></g>
<g><path style="opacity:0.681" fill="#68cae7" d="M 759.5,156.5 C 761.43,160.373 762.097,164.706 761.5,169.5C 762.5,169.5 763.5,169.5 764.5,169.5C 764.183,165.298 764.517,161.298 765.5,157.5C 765.5,161.833 765.5,166.167 765.5,170.5C 763.833,170.5 762.167,170.5 760.5,170.5C 760.774,165.737 760.441,161.07 759.5,156.5 Z"/></g>
<g><path style="opacity:0.278" fill="#8bb7d3" d="M 380.5,158.5 C 381.833,160.167 381.833,161.833 380.5,163.5C 379.167,161.833 379.167,160.167 380.5,158.5 Z"/></g>
<g><path style="opacity:1" fill="#62c2e3" d="M 252.5,156.5 C 252.33,157.822 252.663,158.989 253.5,160C 258.489,160.499 263.489,160.666 268.5,160.5C 268.5,161.5 268.5,162.5 268.5,163.5C 264.442,161.334 260.108,161.001 255.5,162.5C 254.568,164.795 253.735,167.129 253,169.5C 251.052,170.109 249.218,170.776 247.5,171.5C 247.167,171.5 246.833,171.5 246.5,171.5C 248.126,166.277 250.126,161.277 252.5,156.5 Z"/></g>
<g><path style="opacity:1" fill="#54bde1" d="M 269.5,151.5 C 272.354,157.897 274.687,164.564 276.5,171.5C 276.167,171.5 275.833,171.5 275.5,171.5C 270.897,171.025 268.564,168.359 268.5,163.5C 270.23,164.976 271.563,164.642 272.5,162.5C 271.902,161.205 271.402,159.872 271,158.5C 270.667,158.833 270.333,159.167 270,159.5C 269.503,156.854 269.336,154.187 269.5,151.5 Z"/></g>
<g><path style="opacity:0.004" fill="#88bbd7" d="M 417.5,161.5 C 417.741,163.898 417.074,165.898 415.5,167.5C 415.595,165.214 416.262,163.214 417.5,161.5 Z"/></g>
<g><path style="opacity:1" fill="#1d669f" d="M 411.5,161.5 C 411.5,161.833 411.5,162.167 411.5,162.5C 412.301,164.793 412.968,164.46 413.5,161.5C 413.5,161.167 413.5,160.833 413.5,160.5C 414.79,159.942 415.623,158.942 416,157.5C 417.188,158.563 417.688,159.897 417.5,161.5C 416.262,163.214 415.595,165.214 415.5,167.5C 414.21,169.14 412.543,169.64 410.5,169C 410.833,168.667 411.167,168.333 411.5,168C 410.309,167.302 409.309,166.469 408.5,165.5C 407.596,164.791 407.263,163.791 407.5,162.5C 407.491,160.692 407.991,159.025 409,157.5C 409.2,159.32 410.034,160.653 411.5,161.5 Z"/></g>
<g><path style="opacity:0.31" fill="#bdd6e5" d="M 413.5,161.5 C 412.968,164.46 412.301,164.793 411.5,162.5C 412.167,162.167 412.833,161.833 413.5,161.5 Z"/></g>
<g><path style="opacity:1" fill="#59bfe2" d="M 537.5,142.5 C 537.5,145.5 537.5,148.5 537.5,151.5C 541.605,151.766 545.605,151.266 549.5,150C 550.768,147.837 550.768,145.67 549.5,143.5C 550.827,145.987 552.494,148.32 554.5,150.5C 554.423,151.75 553.756,152.583 552.5,153C 557.738,156.274 558.904,160.774 556,166.5C 554.961,167.71 553.794,168.71 552.5,169.5C 552.5,168.5 552.5,167.5 552.5,166.5C 550.833,166.5 549.167,166.5 547.5,166.5C 547.5,166.167 547.5,165.833 547.5,165.5C 552.223,164.388 553.389,161.721 551,157.5C 550.329,156.748 549.496,156.414 548.5,156.5C 548.5,156.167 548.5,155.833 548.5,155.5C 550.562,154.495 551.396,152.829 551,150.5C 546.369,152.272 541.536,152.938 536.5,152.5C 536.187,148.958 536.521,145.625 537.5,142.5 Z"/></g>
<g><path style="opacity:1" fill="#2eb4dc" d="M 499.5,162.5 C 500.5,164.167 501.833,165.5 503.5,166.5C 505.631,167.314 507.964,167.814 510.5,168C 507.856,170.017 504.856,170.85 501.5,170.5C 497.5,169.833 495.167,167.5 494.5,163.5C 494.5,155.167 494.5,146.833 494.5,138.5C 495.833,138.5 497.167,138.5 498.5,138.5C 498.174,146.684 498.508,154.684 499.5,162.5 Z"/></g>
<g><path style="opacity:1" fill="#6ec7e4" d="M 518.5,164.5 C 518.5,155.833 518.5,147.167 518.5,138.5C 517.5,138.5 516.5,138.5 515.5,138.5C 515.2,146.223 515.533,153.89 516.5,161.5C 515.318,163.761 513.651,165.595 511.5,167C 513.119,167.236 514.119,168.069 514.5,169.5C 513.5,170.167 512.5,170.833 511.5,171.5C 508.167,171.5 504.833,171.5 501.5,171.5C 501.5,171.167 501.5,170.833 501.5,170.5C 504.856,170.85 507.856,170.017 510.5,168C 507.964,167.814 505.631,167.314 503.5,166.5C 508.439,167.648 511.939,165.981 514,161.5C 514.5,153.507 514.666,145.507 514.5,137.5C 516.467,137.261 518.301,137.594 520,138.5C 520.667,145.5 520.667,152.5 520,159.5C 519.802,161.382 519.302,163.048 518.5,164.5 Z"/></g>
<g><path style="opacity:1" fill="#4cbce0" d="M 640.5,138.5 C 644.602,140.266 647.269,143.266 648.5,147.5C 649.86,152.739 649.693,158.072 648,163.5C 646.52,166.817 644.02,168.817 640.5,169.5C 639.5,169.5 638.5,169.5 637.5,169.5C 634.452,167.881 631.119,166.881 627.5,166.5C 630.713,166.81 633.713,166.477 636.5,165.5C 638.903,165.607 640.736,164.607 642,162.5C 645.282,155.854 644.782,149.521 640.5,143.5C 641.497,143.53 642.164,143.03 642.5,142C 642.056,140.238 641.556,140.405 641,142.5C 640.51,141.207 640.343,139.873 640.5,138.5 Z"/></g>
<g><path style="opacity:1" fill="#0fafda" d="M 648.5,147.5 C 648.823,151.226 648.489,154.893 647.5,158.5C 646.914,158.291 646.414,157.957 646,157.5C 644.737,153.078 644.737,148.745 646,144.5C 646.852,145.571 647.685,146.571 648.5,147.5 Z"/></g>
<g><path style="opacity:0.749" fill="#5c92bb" d="M 408.5,165.5 C 409.309,166.469 410.309,167.302 411.5,168C 411.167,168.333 410.833,168.667 410.5,169C 412.543,169.64 414.21,169.14 415.5,167.5C 415.5,168.5 415.5,169.5 415.5,170.5C 411.167,171.315 408.834,169.648 408.5,165.5 Z"/></g>
</svg>
